<?xml version="1.0" encoding="iso-8859-1"?>
<!-- Generator: Adobe Illustrator 17.1.0, SVG Export Plug-In . SVG Version: 6.00 Build 0)  -->
<!DOCTYPE svg PUBLIC "-//W3C//DTD SVG 1.1//EN" "http://www.w3.org/Graphics/SVG/1.1/DTD/svg11.dtd">
<svg version="1.1" id="Capa_1" xmlns="http://www.w3.org/2000/svg" xmlns:xlink="http://www.w3.org/1999/xlink" x="0px" y="0px"
	 viewBox="0 0 246 246" style="enable-background:new 0 0 246 246;" xml:space="preserve">
<path d="M229.391,92.377l-17,98.399C211.77,194.373,208.649,197,205,197H40.5c-3.662,0-6.789-2.646-7.396-6.257l-16.5-98.175
	c-0.66-3.931,1.869-7.693,5.759-8.563c3.892-0.865,7.781,1.452,8.858,5.291l20.166,71.84L49.501,35.625
	c-0.058-3.814,2.759-7.072,6.543-7.559c3.767-0.491,7.33,1.93,8.24,5.635l26.543,108.096L115.37,6.288
	C116.017,2.723,119.119,0,122.742,0c0.003,0,0.005,0,0.008,0c3.62,0,6.724,2.711,7.377,6.272l24.892,135.869l26.699-108.467
	c0.911-3.703,4.447-6.139,8.242-5.646c3.783,0.488,6.598,3.738,6.539,7.553l-1.917,125.495l20.196-72.002
	c1.078-3.846,4.979-6.176,8.875-5.29C227.548,84.665,230.07,88.442,229.391,92.377z M212.667,222.5c0-4.142-3.358-7.5-7.5-7.5h-165
	c-4.142,0-7.5,3.358-7.5,7.5v16c0,4.142,3.358,7.5,7.5,7.5h165c4.142,0,7.5-3.358,7.5-7.5V222.5z"/>
<g>
</g>
<g>
</g>
<g>
</g>
<g>
</g>
<g>
</g>
<g>
</g>
<g>
</g>
<g>
</g>
<g>
</g>
<g>
</g>
<g>
</g>
<g>
</g>
<g>
</g>
<g>
</g>
<g>
</g>
</svg>
