<?xml version="1.0" encoding="iso-8859-1"?>
<!-- Generator: Adobe Illustrator 17.1.0, SVG Export Plug-In . SVG Version: 6.00 Build 0)  -->
<!DOCTYPE svg PUBLIC "-//W3C//DTD SVG 1.1//EN" "http://www.w3.org/Graphics/SVG/1.1/DTD/svg11.dtd">
<svg version="1.1" id="Capa_1" xmlns="http://www.w3.org/2000/svg" xmlns:xlink="http://www.w3.org/1999/xlink" x="0px" y="0px"
	 viewBox="0 0 231.553 231.553" style="enable-background:new 0 0 231.553 231.553;" xml:space="preserve">
<path d="M215.61,224.053c0,4.142-3.358,7.5-7.5,7.5h-186c-4.142,0-7.5-3.358-7.5-7.5v-17c0-4.142,3.358-7.5,7.5-7.5h186
	c4.142,0,7.5,3.358,7.5,7.5V224.053z M223.816,115.803c0-27.238-14.133-50.25-30.936-50.25c-16.804,0-30.968,23.012-30.968,50.25
	c0,6.966,0.965,13.651,2.628,19.75h-15.475c-1.388-6.31-2.121-12.953-2.121-19.75c0-16.89,4.452-32.87,12.536-44.996
	c2.245-3.368,4.706-6.338,7.336-8.903c-7.763-10.863-18.204-19.211-30.204-23.729c2.54-3.879,4.023-8.51,4.023-13.483
	C140.635,11.076,129.558,0,115.943,0c-13.614,0-24.69,11.076-24.69,24.691c0,4.973,1.483,9.604,4.022,13.483
	c-12,4.517-22.441,12.865-30.204,23.729c2.631,2.565,5.091,5.535,7.336,8.903c8.084,12.126,12.536,28.106,12.536,44.996
	c0,6.797-0.733,13.44-2.121,19.75H67.347c1.663-6.099,2.596-12.784,2.596-19.75c0-27.238-14.196-50.25-31-50.25
	S7.737,88.564,7.737,115.803c0,15.07,3.873,28.838,10.873,38.139v19.611c0,4.143,3.77,8,7.912,8h178.843
	c4.143,0,7.245-3.857,7.245-8V153.94C219.61,144.639,223.816,130.872,223.816,115.803z"/>
<g>
</g>
<g>
</g>
<g>
</g>
<g>
</g>
<g>
</g>
<g>
</g>
<g>
</g>
<g>
</g>
<g>
</g>
<g>
</g>
<g>
</g>
<g>
</g>
<g>
</g>
<g>
</g>
<g>
</g>
</svg>
