<?xml version="1.0" encoding="iso-8859-1"?>
<!-- Generator: Adobe Illustrator 17.1.0, SVG Export Plug-In . SVG Version: 6.00 Build 0)  -->
<!DOCTYPE svg PUBLIC "-//W3C//DTD SVG 1.1//EN" "http://www.w3.org/Graphics/SVG/1.1/DTD/svg11.dtd">
<svg version="1.1" id="Capa_1" xmlns="http://www.w3.org/2000/svg" xmlns:xlink="http://www.w3.org/1999/xlink" x="0px" y="0px"
	 viewBox="0 0 245.582 245.582" style="enable-background:new 0 0 245.582 245.582;" xml:space="preserve">
<path d="M164.583,238.082c0,4.142-3.358,7.5-7.5,7.5h-69c-4.142,0-7.5-3.358-7.5-7.5v-16c0-4.142,3.358-7.5,7.5-7.5h69
	c4.142,0,7.5,3.358,7.5,7.5V238.082z M208.989,67.46c-3.416-1.854-7.688-0.814-9.832,2.432l-54.406,82.327l-14.44-124.925
	c4.251-2.584,7.105-7.246,7.105-12.574C137.416,6.604,130.812,0,122.695,0s-14.721,6.604-14.721,14.721
	c0,5.121,2.632,9.635,6.611,12.273l-13.415,125.21L46.409,69.927c-2.154-3.238-6.426-4.29-9.835-2.429
	c-3.412,1.861-4.837,6.021-3.282,9.584l49.75,114c1.193,2.733,3.892,4.5,6.874,4.5h66c2.987,0,5.689-1.78,6.88-4.52l49.5-114.007
	C213.845,73.487,212.409,69.313,208.989,67.46z"/>
<g>
</g>
<g>
</g>
<g>
</g>
<g>
</g>
<g>
</g>
<g>
</g>
<g>
</g>
<g>
</g>
<g>
</g>
<g>
</g>
<g>
</g>
<g>
</g>
<g>
</g>
<g>
</g>
<g>
</g>
</svg>
