<?xml version="1.0" encoding="iso-8859-1"?>
<!-- Generator: Adobe Illustrator 17.1.0, SVG Export Plug-In . SVG Version: 6.00 Build 0)  -->
<!DOCTYPE svg PUBLIC "-//W3C//DTD SVG 1.1//EN" "http://www.w3.org/Graphics/SVG/1.1/DTD/svg11.dtd">
<svg version="1.1" id="Capa_1" xmlns="http://www.w3.org/2000/svg" xmlns:xlink="http://www.w3.org/1999/xlink" x="0px" y="0px"
	 viewBox="0 0 246 246" style="enable-background:new 0 0 246 246;" xml:space="preserve">
<path d="M203.667,234.256c0,4.142-3.358,7.5-7.5,7.5h-148c-4.142,0-7.5-3.358-7.5-7.5v-16c0-4.142,3.358-7.5,7.5-7.5h148
	c4.142,0,7.5,3.358,7.5,7.5V234.256z M243.784,96.933c-2.122-2.107-5.294-2.75-8.069-1.642l-20.296,8.118
	c-5.759-9.293-16.001-15.247-27.384-15.247c-2.673,0-5.351,0.337-7.961,1c-12.905,3.28-22.01,13.964-23.932,26.357l-25.44-63.215
	c9.83-3.242,16.948-12.508,16.948-23.411c0-13.592-11.059-24.649-24.65-24.649S98.351,15.302,98.351,28.894
	c0,10.902,7.117,20.168,16.947,23.41L90.08,114.969c-2.105-12.159-11.121-22.576-23.834-25.806c-2.608-0.663-5.287-1-7.959-1
	c-11.424,0-21.7,5.997-27.449,15.35l-20.553-8.221c-2.789-1.116-5.976-0.46-8.097,1.669c-2.121,2.128-2.768,5.316-1.644,8.102
	l33.5,83c1.145,2.837,3.896,4.693,6.955,4.693h165c3.087,0,5.858-1.892,6.983-4.766l32.5-83
	C246.574,102.206,245.906,99.04,243.784,96.933z"/>
<g>
</g>
<g>
</g>
<g>
</g>
<g>
</g>
<g>
</g>
<g>
</g>
<g>
</g>
<g>
</g>
<g>
</g>
<g>
</g>
<g>
</g>
<g>
</g>
<g>
</g>
<g>
</g>
<g>
</g>
</svg>
