<?xml version="1.0" encoding="iso-8859-1"?>
<!-- Generator: Adobe Illustrator 17.1.0, SVG Export Plug-In . SVG Version: 6.00 Build 0)  -->
<!DOCTYPE svg PUBLIC "-//W3C//DTD SVG 1.1//EN" "http://www.w3.org/Graphics/SVG/1.1/DTD/svg11.dtd">
<svg version="1.1" id="Capa_1" xmlns="http://www.w3.org/2000/svg" xmlns:xlink="http://www.w3.org/1999/xlink" x="0px" y="0px"
	 viewBox="0 0 255.505 255.505" style="enable-background:new 0 0 255.505 255.505;" xml:space="preserve">
<path d="M187.41,248.005c0,4.142-3.358,7.5-7.5,7.5h-104c-4.142,0-7.5-3.358-7.5-7.5v-16c0-4.142,3.358-7.5,7.5-7.5h104
	c4.142,0,7.5,3.358,7.5,7.5V248.005z M233.728,56.977c-0.092-0.079-0.185-0.156-0.299-0.249c-5.697-4.559-12.848-7.069-20.134-7.069
	c-9.858,0-19.042,4.41-25.195,12.101c-9.589,11.982-9.214,28.764,0.011,40.295l-37.849,45.332L137.236,47.287
	c3.225-1.384,6.157-3.447,8.558-6.097c4.663-5.147,6.943-12.085,6.256-19.035c-1.151-11.619-10.42-20.888-22.038-22.037
	c-7.788-0.764-15.542,2.219-20.762,7.981c-4.662,5.147-6.941,12.085-6.254,19.034c0.921,9.294,7.043,17.071,15.4,20.405
	l-11.49,99.375L68.11,101.956c3.676-4.769,5.949-10.481,6.526-16.623c0.807-8.576-1.776-16.953-7.271-23.588
	c-6.147-7.423-15.205-11.68-24.851-11.68c-7.477,0-14.77,2.627-20.538,7.397c-0.111,0.091-0.221,0.186-0.334,0.286
	c-2.045,1.771-2.897,4.415-2.479,6.912c-0.108,1.146,0.04,2.329,0.488,3.461l52.883,133.643c1.132,2.861,3.896,4.74,6.974,4.74
	h98.414c3.114,0,5.905-1.932,7.011-4.843l50.883-133.937c0.421-1.109,0.559-2.264,0.452-3.384
	C236.856,61.685,235.981,58.82,233.728,56.977z"/>
<g>
</g>
<g>
</g>
<g>
</g>
<g>
</g>
<g>
</g>
<g>
</g>
<g>
</g>
<g>
</g>
<g>
</g>
<g>
</g>
<g>
</g>
<g>
</g>
<g>
</g>
<g>
</g>
<g>
</g>
</svg>
