<?xml version="1.0" encoding="iso-8859-1"?>
<!-- Generator: Adobe Illustrator 17.1.0, SVG Export Plug-In . SVG Version: 6.00 Build 0)  -->
<!DOCTYPE svg PUBLIC "-//W3C//DTD SVG 1.1//EN" "http://www.w3.org/Graphics/SVG/1.1/DTD/svg11.dtd">
<svg version="1.1" id="Capa_1" xmlns="http://www.w3.org/2000/svg" xmlns:xlink="http://www.w3.org/1999/xlink" x="0px" y="0px"
	 viewBox="0 0 279.001 279.001" style="enable-background:new 0 0 279.001 279.001;" xml:space="preserve">
<path d="M278.711,81.913l-9.338,32.642c-12.516,43.75-14.647,90.419-6.208,135.132c1.337,2.11,1.553,4.78,0.503,7.103
	c-1.213,2.686-3.887,4.416-6.834,4.416h-0.268c-0.007,0-0.013,0-0.021,0h-0.232h-0.02H22.706h-0.287h-0.252
	c-2.947,0-5.621-1.73-6.834-4.416c-1.05-2.322-0.834-4.992,0.501-7.102c8.442-44.715,6.311-91.381-6.206-135.135L0.289,81.913
	c-0.836-2.925,0.176-6.064,2.563-7.949c2.387-1.884,5.677-2.14,8.326-0.65l80.773,45.448l34.698-60.757
	c-5.633-4.023-9.315-10.61-9.315-18.044c0-12.223,9.943-22.166,22.166-22.166s22.167,9.943,22.167,22.166
	c0,7.447-3.695,14.042-9.343,18.064l34.685,60.761l80.814-45.471c2.65-1.49,5.938-1.235,8.326,0.65
	C278.536,75.849,279.547,78.989,278.711,81.913z"/>
<g>
</g>
<g>
</g>
<g>
</g>
<g>
</g>
<g>
</g>
<g>
</g>
<g>
</g>
<g>
</g>
<g>
</g>
<g>
</g>
<g>
</g>
<g>
</g>
<g>
</g>
<g>
</g>
<g>
</g>
</svg>
