<?xml version="1.0" encoding="iso-8859-1"?>
<!-- Generator: Adobe Illustrator 17.1.0, SVG Export Plug-In . SVG Version: 6.00 Build 0)  -->
<!DOCTYPE svg PUBLIC "-//W3C//DTD SVG 1.1//EN" "http://www.w3.org/Graphics/SVG/1.1/DTD/svg11.dtd">
<svg version="1.1" id="Capa_1" xmlns="http://www.w3.org/2000/svg" xmlns:xlink="http://www.w3.org/1999/xlink" x="0px" y="0px"
	 viewBox="0 0 247 247" style="enable-background:new 0 0 247 247;" xml:space="preserve">
<path d="M229.244,104.906l-42.75,87.875c-1.256,2.581-3.874,4.219-6.744,4.219H67.25c-2.87,0-5.488-1.638-6.744-4.219l-42.75-87.875
	c-1.214-2.495-0.951-5.456,0.683-7.698c0.815-1.118,20.314-27.411,51.072-29.307c13.017-0.813,25.868,2.857,38.414,10.883
	L89.421,60.28c-2.442-2.442-2.9-6.237-1.11-9.191l28.775-47.477C118.445,1.37,120.878,0,123.5,0s5.055,1.37,6.414,3.612
	l28.775,47.477c1.79,2.954,1.332,6.749-1.11,9.191l-18.942,18.942c12.704-8.238,25.722-12.015,38.897-11.209
	c30.728,1.874,50.207,28.073,51.021,29.188C230.194,99.443,230.459,102.408,229.244,104.906z M189.167,222.5
	c0-4.142-3.358-7.5-7.5-7.5h-117c-4.142,0-7.5,3.358-7.5,7.5v17c0,4.142,3.358,7.5,7.5,7.5h117c4.142,0,7.5-3.358,7.5-7.5V222.5z"/>
<g>
</g>
<g>
</g>
<g>
</g>
<g>
</g>
<g>
</g>
<g>
</g>
<g>
</g>
<g>
</g>
<g>
</g>
<g>
</g>
<g>
</g>
<g>
</g>
<g>
</g>
<g>
</g>
<g>
</g>
</svg>
