<?xml version="1.0" encoding="iso-8859-1"?>
<!-- Generator: Adobe Illustrator 17.1.0, SVG Export Plug-In . SVG Version: 6.00 Build 0)  -->
<!DOCTYPE svg PUBLIC "-//W3C//DTD SVG 1.1//EN" "http://www.w3.org/Graphics/SVG/1.1/DTD/svg11.dtd">
<svg version="1.1" id="Capa_1" xmlns="http://www.w3.org/2000/svg" xmlns:xlink="http://www.w3.org/1999/xlink" x="0px" y="0px"
	 viewBox="0 0 246.002 246.002" style="enable-background:new 0 0 246.002 246.002;" xml:space="preserve">
<path d="M214.668,222.256c0,4.142-3.358,7.5-7.5,7.5h-169c-4.142,0-7.5-3.358-7.5-7.5v-16c0-4.142,3.358-7.5,7.5-7.5h169
	c4.142,0,7.5,3.358,7.5,7.5V222.256z M245.484,92.991l-32.5,83c-1.125,2.874-3.896,4.766-6.983,4.766h-165
	c-3.059,0-5.811-1.856-6.955-4.693l-33.5-83c-1.333-3.302-0.16-7.086,2.808-9.056c2.966-1.967,6.908-1.581,9.435,0.93l40.682,40.436
	l12.93-38.03c0.75-2.206,2.482-3.938,4.688-4.688c2.209-0.748,4.636-0.432,6.573,0.861l25.184,16.79l10.536-36.717
	c-8.826-3.755-15.03-12.513-15.03-22.694c0-13.592,11.058-24.649,24.649-24.649s24.65,11.058,24.65,24.649
	c0,10.181-6.205,18.939-15.031,22.694l10.456,36.437l24.764-16.51c1.937-1.292,4.363-1.61,6.573-0.861
	c2.205,0.75,3.938,2.481,4.688,4.688l13.057,38.402l41.056-40.807c2.517-2.5,6.439-2.896,9.402-0.951
	C245.581,85.932,246.777,89.689,245.484,92.991z M147.419,115.158l12.292,42.836l20.606-20.481l-12.275-36.104L147.419,115.158z
	 M65.311,137.142l20.98,20.853l12.212-42.557L77.46,101.409L65.311,137.142z"/>
<g>
</g>
<g>
</g>
<g>
</g>
<g>
</g>
<g>
</g>
<g>
</g>
<g>
</g>
<g>
</g>
<g>
</g>
<g>
</g>
<g>
</g>
<g>
</g>
<g>
</g>
<g>
</g>
<g>
</g>
</svg>
