<?xml version="1.0" encoding="iso-8859-1"?>
<!-- Generator: Adobe Illustrator 17.1.0, SVG Export Plug-In . SVG Version: 6.00 Build 0)  -->
<!DOCTYPE svg PUBLIC "-//W3C//DTD SVG 1.1//EN" "http://www.w3.org/Graphics/SVG/1.1/DTD/svg11.dtd">
<svg version="1.1" id="Capa_1" xmlns="http://www.w3.org/2000/svg" xmlns:xlink="http://www.w3.org/1999/xlink" x="0px" y="0px"
	 viewBox="0 0 246 246" style="enable-background:new 0 0 246 246;" xml:space="preserve">
<path d="M246,7.5v183c0,4.143-3.024,7.5-7.167,7.5h-231C3.69,198,0,194.643,0,190.5V7.959c0-3.122,2.101-5.918,5.023-7.019
	c2.924-1.1,6.305-0.275,8.363,2.071l59.532,67.783l44.118-67.401C118.422,1.276,120.792,0,123.323,0s4.896,1.276,6.282,3.394
	l44.083,67.375L233.18,2.569c2.055-2.355,5.193-3.189,8.118-2.092C244.226,1.575,246,4.373,246,7.5z M246,222.5
	c0-4.142-3.358-7.5-7.5-7.5H7.5c-4.142,0-7.5,3.358-7.5,7.5v16c0,4.142,3.358,7.5,7.5,7.5h231c4.142,0,7.5-3.358,7.5-7.5V222.5z"/>
<g>
</g>
<g>
</g>
<g>
</g>
<g>
</g>
<g>
</g>
<g>
</g>
<g>
</g>
<g>
</g>
<g>
</g>
<g>
</g>
<g>
</g>
<g>
</g>
<g>
</g>
<g>
</g>
<g>
</g>
</svg>
