<?xml version="1.0" encoding="iso-8859-1"?>
<!-- Generator: Adobe Illustrator 17.1.0, SVG Export Plug-In . SVG Version: 6.00 Build 0)  -->
<!DOCTYPE svg PUBLIC "-//W3C//DTD SVG 1.1//EN" "http://www.w3.org/Graphics/SVG/1.1/DTD/svg11.dtd">
<svg version="1.1" id="Capa_1" xmlns="http://www.w3.org/2000/svg" xmlns:xlink="http://www.w3.org/1999/xlink" x="0px" y="0px"
	 viewBox="0 0 283.003 283.003" style="enable-background:new 0 0 283.003 283.003;" xml:space="preserve">
<path d="M217.239,154.698l51.686-90.04c1.479-2.575,4.32-4.027,7.291-3.726c2.953,0.312,5.444,2.336,6.354,5.162l0.237,1.254
	c0.239,0.742,0.194,1.518,0.194,2.297v154.026l-53.417-40.132L217.239,154.698z M141.221,250.843h126.996c1.191,0,2.291-1,3.292-1
	c0.001,0,0.002,0,0.003,0h0c6.399-2.031,8.635-9.817,2.842-14.155l-54.94-41.148c-1.209-0.906-2.14-2.064-2.706-3.369l-8.783-20.249
	l0,0L150.062,37.516c-0.347-0.801-0.813-1.498-1.348-2.119c-1.153-1.34-2.681-2.257-4.358-2.761
	c-0.146-0.044-0.287-0.103-0.435-0.141c-0.211-0.053-0.428-0.08-0.642-0.12c-0.232-0.044-0.462-0.102-0.697-0.131
	c-0.23-0.028-0.462-0.029-0.693-0.043c-0.224-0.013-0.446-0.041-0.671-0.041c-0.224,0-0.446,0.028-0.67,0.041
	c-0.231,0.014-0.464,0.014-0.694,0.042c-0.143,0.018-0.282,0.056-0.424,0.079c-2.551,0.417-4.931,1.717-6.381,3.936
	c-0.255,0.391-0.482,0.809-0.675,1.255L65.731,191.061c-0.565,1.302-1.493,2.458-2.698,3.362L8.04,235.694
	c-5.784,4.341-3.546,12.12,2.85,14.15h0c0.001,0,0.002,0,0.002,0.001c1.002,0.318,2.102,0.999,3.293,0.999H141.221z M52.524,183.43
	l13.034-29.838L14.592,64.661c-1.532-2.673-4.52-4.137-7.568-3.69c-3.047,0.445-5.502,2.707-6.207,5.705l-0.456,1.254
	C0.228,68.492,0,69.068,0,69.646v153.077L52.524,183.43z"/>
<g>
</g>
<g>
</g>
<g>
</g>
<g>
</g>
<g>
</g>
<g>
</g>
<g>
</g>
<g>
</g>
<g>
</g>
<g>
</g>
<g>
</g>
<g>
</g>
<g>
</g>
<g>
</g>
<g>
</g>
</svg>
