<?xml version="1.0" encoding="iso-8859-1"?>
<!-- Generator: Adobe Illustrator 17.1.0, SVG Export Plug-In . SVG Version: 6.00 Build 0)  -->
<!DOCTYPE svg PUBLIC "-//W3C//DTD SVG 1.1//EN" "http://www.w3.org/Graphics/SVG/1.1/DTD/svg11.dtd">
<svg version="1.1" id="Capa_1" xmlns="http://www.w3.org/2000/svg" xmlns:xlink="http://www.w3.org/1999/xlink" x="0px" y="0px"
	 viewBox="0 0 230.553 230.553" style="enable-background:new 0 0 230.553 230.553;" xml:space="preserve">
<path d="M187.969,223.053c0,4.142-3.358,7.5-7.5,7.5h-132c-4.142,0-7.5-3.358-7.5-7.5v-17c0-4.142,3.358-7.5,7.5-7.5h132
	c4.142,0,7.5,3.358,7.5,7.5V223.053z M107.969,69.968c-22-21.008-43.025-31.124-62.711-30.135
	c-22.834,1.164-34.614,17.148-35.108,17.829c-1.391,1.915-1.754,4.374-1.052,6.634l33.396,107.157c0.976,3.137,3.899,5.1,7.183,5.1
	h58.292V69.968z M220.362,57.65c-0.493-0.676-12.502-16.568-35.286-17.708c-19.382-0.966-40.107,8.869-62.107,29.271v107.339h57.958
	c3.284,0,6.187-1.963,7.162-5.1l33.375-107.243C222.169,61.945,221.759,59.566,220.362,57.65z M115.302,0
	c-13.614,0-24.69,12.784-24.69,28.497s11.076,28.497,24.69,28.497c13.615,0,24.691-12.784,24.691-28.497S128.918,0,115.302,0z"/>
<g>
</g>
<g>
</g>
<g>
</g>
<g>
</g>
<g>
</g>
<g>
</g>
<g>
</g>
<g>
</g>
<g>
</g>
<g>
</g>
<g>
</g>
<g>
</g>
<g>
</g>
<g>
</g>
<g>
</g>
</svg>
