<?xml version="1.0" encoding="iso-8859-1"?>
<!-- Generator: Adobe Illustrator 17.1.0, SVG Export Plug-In . SVG Version: 6.00 Build 0)  -->
<!DOCTYPE svg PUBLIC "-//W3C//DTD SVG 1.1//EN" "http://www.w3.org/Graphics/SVG/1.1/DTD/svg11.dtd">
<svg version="1.1" id="Capa_1" xmlns="http://www.w3.org/2000/svg" xmlns:xlink="http://www.w3.org/1999/xlink" x="0px" y="0px"
	 viewBox="0 0 247 247" style="enable-background:new 0 0 247 247;" xml:space="preserve">
<path d="M148.768,201.247l46.778-81.44l38.087-66.027c1.763-3.057,4.171-3.698,6.021-3.698c3.021,0,7.346,1.962,7.346,7.366v155.126
	c0,5.567-4.197,10.098-9.765,10.098h-76.067c-5.163,0-9.79-2.668-12.377-7.137S146.195,205.725,148.768,201.247z M52.132,119.784
	L14.034,53.761c-1.764-3.056-4.504-3.696-6.355-3.696C4.66,50.064,0,52.025,0,57.431v155.143c0,5.567,4.863,10.098,10.432,10.098
	h75.909c5.158,0,9.783-2.664,12.371-7.126c2.588-4.463,2.604-9.8,0.042-14.277L52.132,119.784z M111.773,193.818
	c5.173,9.042,5.206,19.792,0.129,28.853h23.705c-5.086-9.078-5.044-19.845,0.153-28.895l44.607-77.661l-50.818-88.115
	c-1.912-3.314-5.068-3.672-6.343-3.672s-4.438,0.358-6.352,3.672L66.66,114.972L111.773,193.818z"/>
<g>
</g>
<g>
</g>
<g>
</g>
<g>
</g>
<g>
</g>
<g>
</g>
<g>
</g>
<g>
</g>
<g>
</g>
<g>
</g>
<g>
</g>
<g>
</g>
<g>
</g>
<g>
</g>
<g>
</g>
</svg>
