<?xml version="1.0" encoding="iso-8859-1"?>
<!-- Generator: Adobe Illustrator 17.1.0, SVG Export Plug-In . SVG Version: 6.00 Build 0)  -->
<!DOCTYPE svg PUBLIC "-//W3C//DTD SVG 1.1//EN" "http://www.w3.org/Graphics/SVG/1.1/DTD/svg11.dtd">
<svg version="1.1" id="Capa_1" xmlns="http://www.w3.org/2000/svg" xmlns:xlink="http://www.w3.org/1999/xlink" x="0px" y="0px"
	 viewBox="0 0 229.5 229.5" style="enable-background:new 0 0 229.5 229.5;" xml:space="preserve">
<path d="M227.481,142.538l-36.894-47.961c-1.419-1.846-3.616-2.927-5.944-2.927s-4.525,1.081-5.944,2.927l-20.408,26.53
	l-36.808-60.421l18.303-23.793c2.074-2.696,2.074-6.45,0-9.146L120.694,2.927C119.275,1.081,117.078,0,114.75,0
	s-4.525,1.081-5.944,2.927L89.714,27.746c-2.074,2.696-2.074,6.45,0,9.146l18.303,23.794L71.21,121.108L50.801,94.577
	c-1.419-1.846-3.616-2.927-5.944-2.927s-4.525,1.081-5.944,2.927L2.019,142.538c-2.074,2.696-2.074,6.225,0,8.921l34.82,45.041
	H17.931c-4.143,0-7.514,3.808-7.514,7.95V222c0,4.143,3.371,7.5,7.514,7.5h193.64c4.143,0,6.847-3.357,6.847-7.5v-17.55
	c0-4.143-2.704-7.95-6.847-7.95h-18.908l34.82-45.041C229.556,148.763,229.556,145.234,227.481,142.538z M52.875,196.5
	l23.322-30.319L99.519,196.5H52.875z M129.982,196.5l23.322-30.318l23.322,30.318H129.982z"/>
<g>
</g>
<g>
</g>
<g>
</g>
<g>
</g>
<g>
</g>
<g>
</g>
<g>
</g>
<g>
</g>
<g>
</g>
<g>
</g>
<g>
</g>
<g>
</g>
<g>
</g>
<g>
</g>
<g>
</g>
</svg>
