<?xml version="1.0" encoding="iso-8859-1"?>
<!-- Generator: Adobe Illustrator 17.1.0, SVG Export Plug-In . SVG Version: 6.00 Build 0)  -->
<!DOCTYPE svg PUBLIC "-//W3C//DTD SVG 1.1//EN" "http://www.w3.org/Graphics/SVG/1.1/DTD/svg11.dtd">
<svg version="1.1" id="Capa_1" xmlns="http://www.w3.org/2000/svg" xmlns:xlink="http://www.w3.org/1999/xlink" x="0px" y="0px"
	 viewBox="0 0 241.5 241.5" style="enable-background:new 0 0 241.5 241.5;" xml:space="preserve">
<path d="M209.459,218c0-4.142-3.358-7.5-7.5-7.5h-163c-4.142,0-7.5,3.358-7.5,7.5v16c0,4.142,3.358,7.5,7.5,7.5h163
	c4.142,0,7.5-3.358,7.5-7.5V218z"/>
<path d="M31.841,189.681c1.361,1.174,3.099,1.819,4.896,1.819h168.108c1.797,0,3.535-0.646,4.896-1.819
	c16.67-14.367,25.549-50.861,25.549-71.681c0-40.528-33.138-73.5-73.667-73.5c-12.041,0-23.166,2.846-34.166,8.316V39.5h17.333
	c4.143,0,7.5-3.357,7.5-7.5s-3.357-7.5-7.5-7.5h-17.333v-17c0-4.143-3.357-7.5-7.5-7.5s-7.5,3.357-7.5,7.5v17H96.792
	c-4.143,0-7.5,3.357-7.5,7.5s3.357,7.5,7.5,7.5h15.667v12.814c-10-5.135-21.174-7.814-32.834-7.814
	C39.097,44.5,6.208,77.472,6.208,118C6.208,138.819,15.171,175.313,31.841,189.681z"/>
<g>
</g>
<g>
</g>
<g>
</g>
<g>
</g>
<g>
</g>
<g>
</g>
<g>
</g>
<g>
</g>
<g>
</g>
<g>
</g>
<g>
</g>
<g>
</g>
<g>
</g>
<g>
</g>
<g>
</g>
</svg>
