<?xml version="1.0" encoding="iso-8859-1"?>
<!-- Generator: Adobe Illustrator 17.1.0, SVG Export Plug-In . SVG Version: 6.00 Build 0)  -->
<!DOCTYPE svg PUBLIC "-//W3C//DTD SVG 1.1//EN" "http://www.w3.org/Graphics/SVG/1.1/DTD/svg11.dtd">
<svg version="1.1" id="Capa_1" xmlns="http://www.w3.org/2000/svg" xmlns:xlink="http://www.w3.org/1999/xlink" x="0px" y="0px"
	 viewBox="0 0 246.001 246.001" style="enable-background:new 0 0 246.001 246.001;" xml:space="preserve">
<path d="M210.668,238.499c0,4.142-3.358,7.5-7.5,7.5h-163c-4.142,0-7.5-3.358-7.5-7.5v-16c0-4.142,3.358-7.5,7.5-7.5h163
	c4.142,0,7.5,3.358,7.5,7.5V238.499z M240.498,0.521c-3.739-1.031-7.651,0.959-9.018,4.592l-35.134,93.514l-0.346-91.151
	c-0.015-3.787-2.851-6.97-6.611-7.419c-3.752-0.449-7.266,1.978-8.171,5.654l-25.273,102.651L130.277,5.695
	c-0.835-3.339-3.835-5.681-7.276-5.681s-6.441,2.343-7.276,5.682l-25.669,102.69L64.783,5.769c-0.905-3.678-4.41-6.108-8.172-5.654
	c-3.76,0.449-6.596,3.632-6.61,7.419l-0.345,91.18l-35.134-93.6C13.158,1.48,9.249-0.514,5.505,0.52
	C1.763,1.553-0.572,5.27,0.122,9.089l33,181.75c0.647,3.567,3.754,6.16,7.379,6.16h165c3.625,0,6.731-2.593,7.379-6.16l33-181.749
	C246.573,5.272,244.239,1.554,240.498,0.521z"/>
<g>
</g>
<g>
</g>
<g>
</g>
<g>
</g>
<g>
</g>
<g>
</g>
<g>
</g>
<g>
</g>
<g>
</g>
<g>
</g>
<g>
</g>
<g>
</g>
<g>
</g>
<g>
</g>
<g>
</g>
</svg>
