<?xml version="1.0" encoding="iso-8859-1"?>
<!-- Generator: Adobe Illustrator 17.1.0, SVG Export Plug-In . SVG Version: 6.00 Build 0)  -->
<!DOCTYPE svg PUBLIC "-//W3C//DTD SVG 1.1//EN" "http://www.w3.org/Graphics/SVG/1.1/DTD/svg11.dtd">
<svg version="1.1" id="Capa_1" xmlns="http://www.w3.org/2000/svg" xmlns:xlink="http://www.w3.org/1999/xlink" x="0px" y="0px"
	 viewBox="0 0 252 252" style="enable-background:new 0 0 252 252;" xml:space="preserve">
<path d="M252,242c0,4.142-3.358,7.5-7.5,7.5H7.5c-4.142,0-7.5-3.358-7.5-7.5v-17c0-4.142,3.358-7.5,7.5-7.5h237
	c4.142,0,7.5,3.358,7.5,7.5V242z M10.833,199.5h231c4.143,0,7.167-3.857,7.167-8V18c0-8.547-6.953-15.5-15.5-15.5S218,9.453,218,18
	v83.5c0,18.748-15.252,34-34,34s-34-15.252-34-34v-75c0-13.233-10.767-24-24-24s-24,10.767-24,24V102
	c0,18.472-15.028,33.5-33.5,33.5S35,120.472,35,102V18c0-8.547-6.62-15.5-15.167-15.5h-1C10.286,2.5,3,9.453,3,18v173.5
	C3,195.643,6.69,199.5,10.833,199.5z"/>
<g>
</g>
<g>
</g>
<g>
</g>
<g>
</g>
<g>
</g>
<g>
</g>
<g>
</g>
<g>
</g>
<g>
</g>
<g>
</g>
<g>
</g>
<g>
</g>
<g>
</g>
<g>
</g>
<g>
</g>
</svg>
