<?xml version="1.0" encoding="iso-8859-1"?>
<!-- Generator: Adobe Illustrator 17.1.0, SVG Export Plug-In . SVG Version: 6.00 Build 0)  -->
<!DOCTYPE svg PUBLIC "-//W3C//DTD SVG 1.1//EN" "http://www.w3.org/Graphics/SVG/1.1/DTD/svg11.dtd">
<svg version="1.1" id="Capa_1" xmlns="http://www.w3.org/2000/svg" xmlns:xlink="http://www.w3.org/1999/xlink" x="0px" y="0px"
	 viewBox="0 0 246.869 246.869" style="enable-background:new 0 0 246.869 246.869;" xml:space="preserve">
<path d="M123.895,193.602H16.437L6.127,157.378l6.642,5.855c9.046,7.976,21.036,12.368,33.793,12.368
	c14.808,0,29.039-6.25,38.067-16.719l38.984-45.195c0.103-0.036,0.443-0.037,0.548-0.001l38.453,45.031
	c9.027,10.572,23.311,16.884,38.209,16.884c12.655,0,24.599-4.353,33.632-12.255l7.266-6.357l-10.324,36.138L123.895,193.602z
	 M209.15,81.415c-18.608-10.587-42.069-17.325-67.417-19.521l2.819-2.819c7.228-7.229,8.19-18.533,2.289-26.879l-16.8-23.759
	c-1.406-1.988-3.689-3.17-6.124-3.17s-4.718,1.182-6.124,3.17l-16.8,23.76c-5.9,8.346-4.938,19.648,2.289,26.878l2.742,2.742
	c-25.701,2.111-49.507,8.882-68.341,19.598C14.375,94.676,1.098,112.548,0,131.98l22.688,20.002
	c6.213,5.479,14.902,8.62,23.841,8.62c10.538,0,20.522-4.305,26.741-11.516l38.859-45.049c-2.605-2.811-4.212-6.56-4.212-10.685
	c0-8.685,7.065-15.75,15.75-15.75s15.75,7.065,15.75,15.75c0,4.006-1.516,7.657-3.989,10.439c0.023,0.027,0.051,0.05,0.074,0.077
	l38.519,45.109c6.216,7.278,16.235,11.624,26.803,11.624c8.891,0,17.549-3.114,23.755-8.544l22.291-19.505
	C246.003,112.9,232.689,94.807,209.15,81.415z M228.584,216.102c0-4.142-3.358-7.5-7.5-7.5h-194c-4.142,0-7.5,3.358-7.5,7.5v18
	c0,4.142,3.358,7.5,7.5,7.5h194c4.142,0,7.5-3.358,7.5-7.5V216.102z"/>
<g>
</g>
<g>
</g>
<g>
</g>
<g>
</g>
<g>
</g>
<g>
</g>
<g>
</g>
<g>
</g>
<g>
</g>
<g>
</g>
<g>
</g>
<g>
</g>
<g>
</g>
<g>
</g>
<g>
</g>
</svg>
