<?xml version="1.0" encoding="iso-8859-1"?>
<!-- Generator: Adobe Illustrator 17.1.0, SVG Export Plug-In . SVG Version: 6.00 Build 0)  -->
<!DOCTYPE svg PUBLIC "-//W3C//DTD SVG 1.1//EN" "http://www.w3.org/Graphics/SVG/1.1/DTD/svg11.dtd">
<svg version="1.1" id="Capa_1" xmlns="http://www.w3.org/2000/svg" xmlns:xlink="http://www.w3.org/1999/xlink" x="0px" y="0px"
	 viewBox="0 0 246.5 246.5" style="enable-background:new 0 0 246.5 246.5;" xml:space="preserve">
<path d="M211.918,239c0,4.142-3.358,7.5-7.5,7.5h-164c-4.142,0-7.5-3.358-7.5-7.5v-16c0-4.142,3.358-7.5,7.5-7.5h164
	c4.142,0,7.5,3.358,7.5,7.5V239z M227.478,67.739c-3.045-1.4-6.646-0.631-8.828,1.909l-74.916,87.251l-7.651-35.678l19.959-20.105
	c2.27-2.285,2.826-5.765,1.384-8.644L130.889,39.5h16.363c4.143,0,7.5-3.357,7.5-7.5s-3.357-7.5-7.5-7.5h-17.333v-17
	c0-4.143-3.357-7.5-7.5-7.5s-7.5,3.357-7.5,7.5v17H98.252c-4.143,0-7.5,3.357-7.5,7.5s3.357,7.5,7.5,7.5h16.667v0.687L88.531,92.433
	c-1.476,2.903-0.826,6.427,1.485,8.721l20.367,20.18l-7.646,35.94L27.843,70.009c-2.182-2.543-5.779-3.33-8.825-1.927
	c-3.043,1.401-4.785,4.652-4.27,7.963l17.884,115.106c0.567,3.653,3.715,6.349,7.412,6.349h166.414c3.699,0,6.846-2.701,7.411-6.356
	l17.883-115.434C232.266,72.399,230.521,69.14,227.478,67.739z"/>
<g>
</g>
<g>
</g>
<g>
</g>
<g>
</g>
<g>
</g>
<g>
</g>
<g>
</g>
<g>
</g>
<g>
</g>
<g>
</g>
<g>
</g>
<g>
</g>
<g>
</g>
<g>
</g>
<g>
</g>
</svg>
